<svg xmlns="http://www.w3.org/2000/svg" id="mermaid-1588841824859" width="100%" height="100%" style="max-width:2250px" viewBox="-50 -10 2250 1311"><style>#mermaid-1588841824859 .actor{stroke:#ccf;fill:#ececff}#mermaid-1588841824859 text.actor{fill:#000;stroke:none}#mermaid-1588841824859 .actor-line{stroke:gray}#mermaid-1588841824859 .messageLine0,#mermaid-1588841824859 .messageLine1{stroke-width:1.5;stroke-dasharray:&apos;2 2&apos;;stroke:#333}#mermaid-1588841824859 #arrowhead,#mermaid-1588841824859 #sequencenumber{fill:#333}#mermaid-1588841824859 #crosshead path{fill:#333!important;stroke:#333!important}#mermaid-1588841824859 .messageText{fill:#333;stroke:none}:root{--mermaid-font-family:&apos;&quot;trebuchet ms&quot;, verdana, arial&apos;;--mermaid-font-family:&quot;Comic Sans MS&quot;, &quot;Comic Sans&quot;, cursive;--mermaid-font-family:&quot;trebuchet ms&quot;, verdana, arial}</style><style>#mermaid-1588841824859{color:#000;font:16px &quot;trebuchet ms&quot;,verdana,arial}</style><g><line id="actor0" x1="75" x2="75" y1="5" y2="1300" stroke="#999" stroke-width=".5" class="actor-line"/><rect width="150" height="65" x="0" y="0" fill="#eaeaea" stroke="#666" class="actor" rx="3" ry="3"/><text x="75" y="32.5" alignment-baseline="central" class="actor" dominant-baseline="central" style="text-anchor:middle;font-size:14px"><tspan x="75" dy="0">User</tspan></text></g><g><line id="actor1" x1="275" x2="275" y1="5" y2="1300" stroke="#999" stroke-width=".5" class="actor-line"/><rect width="150" height="65" x="200" y="0" fill="#eaeaea" stroke="#666" class="actor" rx="3" ry="3"/><text x="275" y="32.5" alignment-baseline="central" class="actor" dominant-baseline="central" style="text-anchor:middle;font-size:14px"><tspan x="275" dy="0">App</tspan></text></g><g><line id="actor2" x1="475" x2="475" y1="5" y2="1300" stroke="#999" stroke-width=".5" class="actor-line"/><rect width="150" height="65" x="400" y="0" fill="#eaeaea" stroke="#666" class="actor" rx="3" ry="3"/><text x="475" y="32.5" alignment-baseline="central" class="actor" dominant-baseline="central" style="text-anchor:middle;font-size:14px"><tspan x="475" dy="0">Application Route (ApplicationRouteMixin)</tspan></text></g><g><line id="actor3" x1="675" x2="675" y1="5" y2="1300" stroke="#999" stroke-width=".5" class="actor-line"/><rect width="150" height="65" x="600" y="0" fill="#eaeaea" stroke="#666" class="actor" rx="3" ry="3"/><text x="675" y="32.5" alignment-baseline="central" class="actor" dominant-baseline="central" style="text-anchor:middle;font-size:14px"><tspan x="675" dy="0">Index Route (AuthenticatedRouteMixin)</tspan></text></g><g><line id="actor4" x1="875" x2="875" y1="5" y2="1300" stroke="#999" stroke-width=".5" class="actor-line"/><rect width="150" height="65" x="800" y="0" fill="#eaeaea" stroke="#666" class="actor" rx="3" ry="3"/><text x="875" y="32.5" alignment-baseline="central" class="actor" dominant-baseline="central" style="text-anchor:middle;font-size:14px"><tspan x="875" dy="0">Login Route (UnauthenticatedRouteMixin)</tspan></text></g><g><line id="actor5" x1="1075" x2="1075" y1="5" y2="1300" stroke="#999" stroke-width=".5" class="actor-line"/><rect width="150" height="65" x="1000" y="0" fill="#eaeaea" stroke="#666" class="actor" rx="3" ry="3"/><text x="1075" y="32.5" alignment-baseline="central" class="actor" dominant-baseline="central" style="text-anchor:middle;font-size:14px"><tspan x="1075" dy="0">Login Controller</tspan></text></g><g><line id="actor6" x1="1275" x2="1275" y1="5" y2="1300" stroke="#999" stroke-width=".5" class="actor-line"/><rect width="150" height="65" x="1200" y="0" fill="#eaeaea" stroke="#666" class="actor" rx="3" ry="3"/><text x="1275" y="32.5" alignment-baseline="central" class="actor" dominant-baseline="central" style="text-anchor:middle;font-size:14px"><tspan x="1275" dy="0">Session Service</tspan></text></g><g><line id="actor7" x1="1475" x2="1475" y1="5" y2="1300" stroke="#999" stroke-width=".5" class="actor-line"/><rect width="150" height="65" x="1400" y="0" fill="#eaeaea" stroke="#666" class="actor" rx="3" ry="3"/><text x="1475" y="32.5" alignment-baseline="central" class="actor" dominant-baseline="central" style="text-anchor:middle;font-size:14px"><tspan x="1475" dy="0">ToriiAuthenticator</tspan></text></g><g><line id="actor8" x1="1675" x2="1675" y1="5" y2="1300" stroke="#999" stroke-width=".5" class="actor-line"/><rect width="150" height="65" x="1600" y="0" fill="#eaeaea" stroke="#666" class="actor" rx="3" ry="3"/><text x="1675" y="32.5" alignment-baseline="central" class="actor" dominant-baseline="central" style="text-anchor:middle;font-size:14px"><tspan x="1675" dy="0">Torii Provider</tspan></text></g><g><line id="actor9" x1="1875" x2="1875" y1="5" y2="1300" stroke="#999" stroke-width=".5" class="actor-line"/><rect width="150" height="65" x="1800" y="0" fill="#eaeaea" stroke="#666" class="actor" rx="3" ry="3"/><text x="1875" y="32.5" alignment-baseline="central" class="actor" dominant-baseline="central" style="text-anchor:middle;font-size:14px"><tspan x="1875" dy="0">Token Exchanger</tspan></text></g><g><line id="actor10" x1="2075" x2="2075" y1="5" y2="1300" stroke="#999" stroke-width=".5" class="actor-line"/><rect width="150" height="65" x="2000" y="0" fill="#eaeaea" stroke="#666" class="actor" rx="3" ry="3"/><text x="2075" y="32.5" alignment-baseline="central" class="actor" dominant-baseline="central" style="text-anchor:middle;font-size:14px"><tspan x="2075" dy="0">GitHub</tspan></text></g><defs><marker id="arrowhead" markerHeight="4" markerWidth="6" orient="auto" refX="5" refY="2"><path d="M 0,0 V 4 L6,2 Z"/></marker></defs><defs><marker id="crosshead" markerHeight="8" markerWidth="15" orient="auto" refX="16" refY="4"><path fill="#000" stroke="#000" stroke-width="1" d="M 9,2 V 6 L16,4 Z" style="stroke-dasharray:0,0"/><path fill="none" stroke="#000" stroke-width="1" d="M 0,1 L 6,7 M 6,1 L 0,7" style="stroke-dasharray:0,0"/></marker></defs><defs><marker id="sequencenumber" markerHeight="40" markerWidth="60" orient="auto" refX="15" refY="15"><circle cx="15" cy="15" r="6"/></marker></defs><g><text x="175" y="93" class="messageText" style="text-anchor:middle">Use https://git-tool.com</text><line x1="75" x2="275" y1="100" y2="100" stroke="#000" stroke-width="2" marker-end="url(#arrowhead)" class="messageLine0" style="fill:none"/></g><g><text x="375" y="128" class="messageText" style="text-anchor:middle">beforeModel()</text><line x1="275" x2="475" y1="135" y2="135" stroke="#000" stroke-width="2" marker-end="url(#arrowhead)" class="messageLine0" style="fill:none"/></g><g><text x="475" y="163" class="messageText" style="text-anchor:middle">subscribeToSessionEvents()</text><path stroke="#000" stroke-width="2" marker-end="url(#arrowhead)" d="M 475,170 C 535,160 535,200 475,190" class="messageLine0" style="fill:none"/></g><g><text x="475" y="228" class="messageText" style="text-anchor:middle">beforeModel()</text><line x1="275" x2="675" y1="235" y2="235" stroke="#000" stroke-width="2" marker-end="url(#arrowhead)" class="messageLine0" style="fill:none"/></g><g><text x="975" y="263" class="messageText" style="text-anchor:middle">isAuthenticated?</text><line x1="675" x2="1275" y1="270" y2="270" stroke="#000" stroke-width="2" marker-end="url(#arrowhead)" class="messageLine0" style="fill:none"/></g><g><text x="975" y="298" class="messageText" style="text-anchor:middle">false</text><line x1="1275" x2="675" y1="305" y2="305" stroke="#000" stroke-width="2" marker-end="url(#arrowhead)" class="messageLine1" style="stroke-dasharray:3,3;fill:none"/></g><g><text x="475" y="333" class="messageText" style="text-anchor:middle">transitionTo(authenticationRoute)</text><line x1="675" x2="275" y1="340" y2="340" stroke="#000" stroke-width="2" marker-end="url(#arrowhead)" class="messageLine0" style="fill:none"/></g><g><text x="575" y="368" class="messageText" style="text-anchor:middle">beforeModel()</text><line x1="275" x2="875" y1="375" y2="375" stroke="#000" stroke-width="2" marker-end="url(#arrowhead)" class="messageLine0" style="fill:none"/></g><g><text x="1075" y="403" class="messageText" style="text-anchor:middle">isAuthenticated?</text><line x1="875" x2="1275" y1="410" y2="410" stroke="#000" stroke-width="2" marker-end="url(#arrowhead)" class="messageLine0" style="fill:none"/></g><g><text x="1075" y="438" class="messageText" style="text-anchor:middle">false</text><line x1="1275" x2="875" y1="445" y2="445" stroke="#000" stroke-width="2" marker-end="url(#arrowhead)" class="messageLine1" style="stroke-dasharray:3,3;fill:none"/></g><g><text x="575" y="473" class="messageText" style="text-anchor:middle">Render login screen</text><line x1="875" x2="275" y1="480" y2="480" stroke="#000" stroke-width="2" marker-end="url(#arrowhead)" class="messageLine1" style="stroke-dasharray:3,3;fill:none"/></g><g><text x="175" y="508" class="messageText" style="text-anchor:middle">Login screen</text><line x1="275" x2="75" y1="515" y2="515" stroke="#000" stroke-width="2" marker-end="url(#arrowhead)" class="messageLine1" style="stroke-dasharray:3,3;fill:none"/></g><g><text x="175" y="543" class="messageText" style="text-anchor:middle">Click &quot;Login&quot;</text><line x1="75" x2="275" y1="550" y2="550" stroke="#000" stroke-width="2" marker-end="url(#arrowhead)" class="messageLine0" style="fill:none"/></g><g><text x="675" y="578" class="messageText" style="text-anchor:middle">login action</text><line x1="275" x2="1075" y1="585" y2="585" stroke="#000" stroke-width="2" marker-end="url(#arrowhead)" class="messageLine0" style="fill:none"/></g><g><text x="1175" y="613" class="messageText" style="text-anchor:middle">authenticate(&apos;authenticator:torii&apos;, &apos;github&apos;)</text><line x1="1075" x2="1275" y1="620" y2="620" stroke="#000" stroke-width="2" marker-end="url(#arrowhead)" class="messageLine0" style="fill:none"/></g><g><text x="1375" y="648" class="messageText" style="text-anchor:middle">authenticate(&apos;github&apos;)</text><line x1="1275" x2="1475" y1="655" y2="655" stroke="#000" stroke-width="2" marker-end="url(#arrowhead)" class="messageLine0" style="fill:none"/></g><g><text x="1575" y="683" class="messageText" style="text-anchor:middle">open(&apos;github&apos;)</text><line x1="1475" x2="1675" y1="690" y2="690" stroke="#000" stroke-width="2" marker-end="url(#arrowhead)" class="messageLine0" style="fill:none"/></g><g><text x="1875" y="718" class="messageText" style="text-anchor:middle">Ask permission</text><line x1="1675" x2="2075" y1="725" y2="725" stroke="#000" stroke-width="2" marker-end="url(#arrowhead)" class="messageLine0" style="fill:none"/></g><g><text x="1075" y="753" class="messageText" style="text-anchor:middle">Is this okay?</text><line x1="2075" x2="75" y1="760" y2="760" stroke="#000" stroke-width="2" marker-end="url(#arrowhead)" class="messageLine0" style="fill:none"/></g><g><text x="1075" y="788" class="messageText" style="text-anchor:middle">Sure is!</text><line x1="75" x2="2075" y1="795" y2="795" stroke="#000" stroke-width="2" marker-end="url(#arrowhead)" class="messageLine1" style="stroke-dasharray:3,3;fill:none"/></g><g><text x="1875" y="823" class="messageText" style="text-anchor:middle">authorizationCode</text><line x1="2075" x2="1675" y1="830" y2="830" stroke="#000" stroke-width="2" marker-end="url(#arrowhead)" class="messageLine1" style="stroke-dasharray:3,3;fill:none"/></g><g><text x="1575" y="858" class="messageText" style="text-anchor:middle">authorizationCode</text><line x1="1675" x2="1475" y1="865" y2="865" stroke="#000" stroke-width="2" marker-end="url(#arrowhead)" class="messageLine1" style="stroke-dasharray:3,3;fill:none"/></g><g><text x="1675" y="893" class="messageText" style="text-anchor:middle">authorize(authorizationCode)</text><line x1="1475" x2="1875" y1="900" y2="900" stroke="#000" stroke-width="2" marker-end="url(#arrowhead)" class="messageLine0" style="fill:none"/></g><g><text x="1975" y="928" class="messageText" style="text-anchor:middle">access_token(authorizationCode, secret)</text><line x1="1875" x2="2075" y1="935" y2="935" stroke="#000" stroke-width="2" marker-end="url(#arrowhead)" class="messageLine0" style="fill:none"/></g><g><text x="1975" y="963" class="messageText" style="text-anchor:middle">access_token</text><line x1="2075" x2="1875" y1="970" y2="970" stroke="#000" stroke-width="2" marker-end="url(#arrowhead)" class="messageLine1" style="stroke-dasharray:3,3;fill:none"/></g><g><text x="1675" y="998" class="messageText" style="text-anchor:middle">access_token</text><line x1="1875" x2="1475" y1="1005" y2="1005" stroke="#000" stroke-width="2" marker-end="url(#arrowhead)" class="messageLine1" style="stroke-dasharray:3,3;fill:none"/></g><g><text x="1375" y="1033" class="messageText" style="text-anchor:middle">access_token</text><line x1="1475" x2="1275" y1="1040" y2="1040" stroke="#000" stroke-width="2" marker-end="url(#arrowhead)" class="messageLine1" style="stroke-dasharray:3,3;fill:none"/></g><g><text x="1175" y="1068" class="messageText" style="text-anchor:middle">isAuthenticated=true</text><line x1="1275" x2="1075" y1="1075" y2="1075" stroke="#000" stroke-width="2" marker-end="url(#arrowhead)" class="messageLine1" style="stroke-dasharray:3,3;fill:none"/></g><g><text x="775" y="1103" class="messageText" style="text-anchor:middle">authenticationSucceeded event</text><line x1="1075" x2="475" y1="1110" y2="1110" stroke="#000" stroke-width="2" marker-end="url(#arrowhead)" class="messageLine0" style="fill:none"/></g><g><text x="575" y="1138" class="messageText" style="text-anchor:middle">transitionTo(routeIfAlreadyAuthenticated)</text><line x1="475" x2="675" y1="1145" y2="1145" stroke="#000" stroke-width="2" marker-end="url(#arrowhead)" class="messageLine1" style="stroke-dasharray:3,3;fill:none"/></g><g><text x="475" y="1173" class="messageText" style="text-anchor:middle">You&apos;re In!</text><line x1="675" x2="275" y1="1180" y2="1180" stroke="#000" stroke-width="2" marker-end="url(#arrowhead)" class="messageLine1" style="stroke-dasharray:3,3;fill:none"/></g><g><text x="175" y="1208" class="messageText" style="text-anchor:middle">Let&apos;s Go!</text><line x1="275" x2="75" y1="1215" y2="1215" stroke="#000" stroke-width="2" marker-end="url(#arrowhead)" class="messageLine1" style="stroke-dasharray:3,3;fill:none"/></g><g><rect width="150" height="65" x="0" y="1235" fill="#eaeaea" stroke="#666" class="actor" rx="3" ry="3"/><text x="75" y="1267.5" alignment-baseline="central" class="actor" dominant-baseline="central" style="text-anchor:middle;font-size:14px"><tspan x="75" dy="0">User</tspan></text></g><g><rect width="150" height="65" x="200" y="1235" fill="#eaeaea" stroke="#666" class="actor" rx="3" ry="3"/><text x="275" y="1267.5" alignment-baseline="central" class="actor" dominant-baseline="central" style="text-anchor:middle;font-size:14px"><tspan x="275" dy="0">App</tspan></text></g><g><rect width="150" height="65" x="400" y="1235" fill="#eaeaea" stroke="#666" class="actor" rx="3" ry="3"/><text x="475" y="1267.5" alignment-baseline="central" class="actor" dominant-baseline="central" style="text-anchor:middle;font-size:14px"><tspan x="475" dy="0">Application Route (ApplicationRouteMixin)</tspan></text></g><g><rect width="150" height="65" x="600" y="1235" fill="#eaeaea" stroke="#666" class="actor" rx="3" ry="3"/><text x="675" y="1267.5" alignment-baseline="central" class="actor" dominant-baseline="central" style="text-anchor:middle;font-size:14px"><tspan x="675" dy="0">Index Route (AuthenticatedRouteMixin)</tspan></text></g><g><rect width="150" height="65" x="800" y="1235" fill="#eaeaea" stroke="#666" class="actor" rx="3" ry="3"/><text x="875" y="1267.5" alignment-baseline="central" class="actor" dominant-baseline="central" style="text-anchor:middle;font-size:14px"><tspan x="875" dy="0">Login Route (UnauthenticatedRouteMixin)</tspan></text></g><g><rect width="150" height="65" x="1000" y="1235" fill="#eaeaea" stroke="#666" class="actor" rx="3" ry="3"/><text x="1075" y="1267.5" alignment-baseline="central" class="actor" dominant-baseline="central" style="text-anchor:middle;font-size:14px"><tspan x="1075" dy="0">Login Controller</tspan></text></g><g><rect width="150" height="65" x="1200" y="1235" fill="#eaeaea" stroke="#666" class="actor" rx="3" ry="3"/><text x="1275" y="1267.5" alignment-baseline="central" class="actor" dominant-baseline="central" style="text-anchor:middle;font-size:14px"><tspan x="1275" dy="0">Session Service</tspan></text></g><g><rect width="150" height="65" x="1400" y="1235" fill="#eaeaea" stroke="#666" class="actor" rx="3" ry="3"/><text x="1475" y="1267.5" alignment-baseline="central" class="actor" dominant-baseline="central" style="text-anchor:middle;font-size:14px"><tspan x="1475" dy="0">ToriiAuthenticator</tspan></text></g><g><rect width="150" height="65" x="1600" y="1235" fill="#eaeaea" stroke="#666" class="actor" rx="3" ry="3"/><text x="1675" y="1267.5" alignment-baseline="central" class="actor" dominant-baseline="central" style="text-anchor:middle;font-size:14px"><tspan x="1675" dy="0">Torii Provider</tspan></text></g><g><rect width="150" height="65" x="1800" y="1235" fill="#eaeaea" stroke="#666" class="actor" rx="3" ry="3"/><text x="1875" y="1267.5" alignment-baseline="central" class="actor" dominant-baseline="central" style="text-anchor:middle;font-size:14px"><tspan x="1875" dy="0">Token Exchanger</tspan></text></g><g><rect width="150" height="65" x="2000" y="1235" fill="#eaeaea" stroke="#666" class="actor" rx="3" ry="3"/><text x="2075" y="1267.5" alignment-baseline="central" class="actor" dominant-baseline="central" style="text-anchor:middle;font-size:14px"><tspan x="2075" dy="0">GitHub</tspan></text></g></svg>